{"title":"Harry Potter &amp; The Half Blood Prince-PS3-1920X1080p","uid":5481019,"size":4286613303,"categoryP":"video","categoryS":"hd___movies","magnet":"?xt=urn:btih:d32a909b7f154bffb6e911d5576f17d85cd97f58&amp;dn=Harry+Potter+%26+The+Half+Blood+Prince-PS3-1920X1080p&amp;tr=udp%3A%2F%2Ftracker.openbittorrent.com%3A80&amp;tr=udp%3A%2F%2Fopen.demonii.com%3A1337&amp;tr=udp%3A%2F%2Ftracker.coppersurfer.tk%3A6969&amp;tr=udp%3A%2F%2Fexodus.desync.com%3A6969","seeders":0,"leechers":1,"uploader":"biglargo","files":-1,"time":1270424239,"description":"In the sixth year at Hogwarts School of Witchcraft, and in both wizard and muggle worlds Lord Voldemort and his henchmen are increasingly active. With vacancies to fill at Hogwarts, Professor Dumbledore persuades Horace Slughorn, back from retirement to become the potions teacher, while Professor Snape receives long awaited news. Harry Potter, together with Dumbledore, must face treacherous tasks to defeat his evil nemesis.  \nGeneral\nID                               : 1\nComplete name                    : Harry Potter &amp; The Half Blood PrinceHarry Potter &amp; The Half Blood Prince.m2ts\nFormat                           : BDAV\nFormat/Info                      : Blu-ray Video\nFile size                        : 3.99 GiB\nDuration                         : 2h 33mn\nOverall bit rate                 : 3 721 Kbps\nMaximum Overall bit rate         : 35.5 Mbps\n\nVideo\nID                               : 4113 (0x1011)\nMenu ID                          : 1 (0x1)\nFormat                           : AVC\nFormat/Info                      : Advanced Video Codec\nFormat profile                   : &lt;a class=&quot;__cf_email__&quot; href=&quot;/cdn-cgi/l/email-protection&quot; data-cfemail=&quot;236b4a444b636f170d13&quot;&gt;[email&amp;#160;protected]&lt;/a&gt;&lt;script cf-hash='f9e31' type=&quot;text/javascript&quot;&gt;\n/* &lt;![CDATA[ */!function(){try{var t=&quot;currentScript&quot;in document?document.currentScript:function(){for(var t=document.getElementsByTagName(&quot;script&quot;),e=t.length;e--;)if(t[e].getAttribute(&quot;cf-hash&quot;))return t[e]}();if(t&amp;&amp;t.previousSibling){var e,r,n,i,c=t.previousSibling,a=c.getAttribute(&quot;data-cfemail&quot;);if(a){for(e=&quot;&quot;,r=parseInt(a.substr(0,2),16),n=2;a.length-n;n+=2)i=parseInt(a.substr(n,2),16)^r,e+=String.fromCharCode(i);e=document.createTextNode(e),c.parentNode.replaceChild(e,c)}}}catch(u){}}();/* ]]&gt; */&lt;/script&gt;\nFormat settings, CABAC           : Yes\nFormat settings, ReFrames        : 3 frames\nDuration                         : 2h 33mn\nBit rate                         : 2 925 Kbps\nNominal bit rate                 : 2 825 Kbps\nWidth                            : 1 920 pixels\nHeight                           : 1 080 pixels\nDisplay aspect ratio             : 16:9\nFrame rate                       : 23.976 fps\nResolution                       : 8 bits\nColorimetry                      : 4:2:0\nScan type                        : Progressive\nBits/(Pixel*Frame)               : 0.059\nStream size                      : 3.14 GiB (79%)\nWriting library                  : x264 core 80 r1376kGIT 3feaec2\n\n\nAudio\nID                               : 4352 (0x1100)\nMenu ID                          : 1 (0x1)\nFormat                           : AC-3\nFormat/Info                      : Audio Coding 3\nDuration                         : 2h 33mn\nBit rate mode                    : Constant\nBit rate                         : 640 Kbps\nChannel(s)                       : 6 channels\nChannel positions                : Front: L C R, Side: L R, LFE\nSampling rate                    : 48.0 KHz\nStream size                      : 703 MiB (17%)\nLanguage                         : English\n &lt;a href=&quot;\nhttp://leetleech.org/images/56710324174654170753.png&quot; rel=&quot;nofollow&quot; target=&quot;_NEW&quot;&gt;\nhttp://leetleech.org/images/56710324174654170753.png&lt;/a&gt; &lt;a href=&quot;\nhttp://leetleech.org/images/01367355515255174893.png&quot; rel=&quot;nofollow&quot; target=&quot;_NEW&quot;&gt;\nhttp://leetleech.org/images/01367355515255174893.png&lt;/a&gt;","torrent":{"xt":"urn:btih:d32a909b7f154bffb6e911d5576f17d85cd97f58","amp;dn":"Harry+Potter+%26+The+Half+Blood+Prince-PS3-1920X1080p","amp;tr":["udp%3A%2F%2Ftracker.openbittorrent.com%3A80","udp%3A%2F%2Fopen.demonii.com%3A1337","udp%3A%2F%2Ftracker.coppersurfer.tk%3A6969","udp%3A%2F%2Fexodus.desync.com%3A6969"],"infoHash":"d32a909b7f154bffb6e911d5576f17d85cd97f58","infoHashBuffer":{"type":"Buffer","data":[211,42,144,155,127,21,75,255,182,233,17,213,87,111,23,216,92,217,127,88]},"announce":[],"urlList":[]}}